<svg id="Слой_1" data-name="Слой 1" xmlns="http://www.w3.org/2000/svg" viewBox="0 0 501.7 253.74"><defs><style>.cls-1{fill:#ef6c00;}.cls-2{fill:#e9fffc;}</style></defs><path class="cls-1" d="M8,322.65a4.49,4.49,0,0,1-3.08-1.24,4,4,0,0,1-1.38-3.09,4.83,4.83,0,0,1,.42-1.86l51.29-133a7.71,7.71,0,0,1,2.45-3.6,7.46,7.46,0,0,1,5-1.55h23.2a7.06,7.06,0,0,1,4.9,1.55,10,10,0,0,1,2.55,3.6l51.29,133a9.53,9.53,0,0,1,.22,1.86,4.3,4.3,0,0,1-4.26,4.33H122a6.06,6.06,0,0,1-4.36-1.34,7,7,0,0,1-1.81-2.58l-10-25.15H42.64l-10,25.15a6.75,6.75,0,0,1-1.81,2.58,6.06,6.06,0,0,1-4.36,1.34ZM50.1,269.86H98.41L74.15,206.15Z" transform="translate(-3.49 -123.36)"/><ellipse class="cls-1" cx="332.37" cy="250.22" rx="126.47" ry="173.1" transform="translate(51.56 436.99) rotate(-85.17)"/><path class="cls-2" d="M217.85,315.29a3.43,3.43,0,0,1-2.55-1.06,3.46,3.46,0,0,1-1.06-2.56V211.86a3.62,3.62,0,0,1,3.61-3.62h11.92a3.46,3.46,0,0,1,2.64,1.06,3.64,3.64,0,0,1,1,2.56v6a28.6,28.6,0,0,1,9.49-8q5.88-3.17,14.63-3.16a34.51,34.51,0,0,1,13.87,2.56,26,26,0,0,1,9.8,7.31,34.1,34.1,0,0,1,6,11.23,52.61,52.61,0,0,1,2.41,14.33c.1,1.71.15,3.46.15,5.27s0,3.62-.15,5.43a47.28,47.28,0,0,1-2.26,13.95,33.34,33.34,0,0,1-6.1,11.15,28.13,28.13,0,0,1-9.88,7.46,32.84,32.84,0,0,1-13.87,2.72,30,30,0,0,1-13.87-2.94,26.77,26.77,0,0,1-9.35-7.76v34.22a3.64,3.64,0,0,1-1,2.56,3.41,3.41,0,0,1-2.64,1.06ZM251.93,272q6.48,0,10.1-2.79a16,16,0,0,0,5.28-7.31,34.54,34.54,0,0,0,2-10q.15-4.53,0-9.05a34.4,34.4,0,0,0-2-9.95,16,16,0,0,0-5.28-7.31q-3.61-2.79-10.1-2.79-6.18,0-10,2.86a16.35,16.35,0,0,0-5.57,7.31,30.27,30.27,0,0,0-2,9.13c-.1,1.81-.15,3.71-.15,5.73s.05,4,.15,5.87a21.77,21.77,0,0,0,2.11,8.68,17.61,17.61,0,0,0,5.73,6.86A16.38,16.38,0,0,0,251.93,272Z" transform="translate(-3.49 -123.36)"/><path class="cls-2" d="M329.43,288.15a31.86,31.86,0,0,1-14.17-3.09,26,26,0,0,1-10-8.29,20.57,20.57,0,0,1,4.9-28.5q8.6-6.26,22.46-8.37l20.66-3v-3.17q0-6.33-3.17-9.8t-10.86-3.47a16,16,0,0,0-8.81,2.19,13.43,13.43,0,0,0-5.06,5.81,3.84,3.84,0,0,1-3.46,2H310a3.22,3.22,0,0,1-2.49-.91,3.44,3.44,0,0,1-.83-2.41,14.89,14.89,0,0,1,2-5.88,23.68,23.68,0,0,1,5.73-6.71,33.08,33.08,0,0,1,10-5.51,43.82,43.82,0,0,1,14.93-2.25,48.33,48.33,0,0,1,16.05,2.33,27.7,27.7,0,0,1,10.48,6.26,23.72,23.72,0,0,1,5.73,9.2,34,34,0,0,1,1.81,11.15V283a3.59,3.59,0,0,1-3.62,3.62H357.62a3.43,3.43,0,0,1-2.64-1.05,3.65,3.65,0,0,1-1-2.57v-5.87a26,26,0,0,1-5.27,5.27,27.25,27.25,0,0,1-8.07,4.15A35.8,35.8,0,0,1,329.43,288.15Zm5.13-14.32a20.24,20.24,0,0,0,9.57-2.27,16.06,16.06,0,0,0,6.78-7,25.71,25.71,0,0,0,2.49-12V249.4l-15.08,2.42q-8.9,1.35-13.27,4.37t-4.36,7.39a8.31,8.31,0,0,0,2,5.65,12.24,12.24,0,0,0,5.2,3.47A19.67,19.67,0,0,0,334.56,273.83Z" transform="translate(-3.49 -123.36)"/><path class="cls-2" d="M406.92,315.29a3.09,3.09,0,0,1-3-3,7.82,7.82,0,0,1,.07-1.12,3.62,3.62,0,0,1,.53-1.29L416.27,282l-28.95-68.3a6.92,6.92,0,0,1-.6-2.11,4,4,0,0,1,1.06-2.34,3,3,0,0,1,2.26-1h12.21a3.68,3.68,0,0,1,2.71.91,6.14,6.14,0,0,1,1.36,2l20.05,49.3L447,211.11a5.25,5.25,0,0,1,1.37-2,3.89,3.89,0,0,1,2.71-.83h12.06a3.15,3.15,0,0,1,2.18.91,2.75,2.75,0,0,1,1,2.11,7,7,0,0,1-.6,2.41l-42.66,98.75a7.17,7.17,0,0,1-1.51,2,3.91,3.91,0,0,1-2.71.83Z" transform="translate(-3.49 -123.36)"/></svg>